# xmcd
#
# Track frame offsets:
#	150
#	14751
#	26399
#
# Disc length: 524 seconds
# Revision: 0
# Processed by: cddbd v1.5.2PL0 Copyright (c) Steve Scherf et al.
# Submitted via: dBpowerAMP V12.0
#
DISCID=1b020a03
DTITLE=St.Christopher - If Black Was Blue
DYEAR=2009
DGENRE=Indie Rock
TTITLE0=If Black Was Blue
TTITLE1=The Thrill Of The New (Live)
TTITLE2=I Can't Forget You (Mirrorball Mix)
EXTD=
EXTT0=
EXTT1=
EXTT2=
PLAYORDER=
